<svg width="123" height="102" viewBox="0 0 123 102" fill="none" xmlns="http://www.w3.org/2000/svg">
<path d="M63.8172 51.2313C65.8283 51.2313 67.2923 50.8912 68.2092 50.2109C69.126 49.5307 69.5844 48.5695 69.5844 47.3273C69.5844 46.5879 69.4218 45.952 69.0964 45.4197C68.8007 44.8873 68.357 44.4141 67.7655 44C67.2036 43.5564 66.5086 43.1571 65.6804 42.8022C64.8523 42.4177 63.9059 42.048 62.8412 41.6931C61.7764 41.3086 60.7413 40.8946 59.7357 40.4509C58.7597 39.9777 57.8872 39.401 57.1182 38.7208C56.3789 38.0405 55.7726 37.2272 55.2993 36.2808C54.8557 35.3343 54.6339 34.1957 54.6339 32.8648C54.6339 30.0846 55.5951 27.9108 57.5175 26.3433C59.4399 24.7462 62.0574 23.9477 65.3699 23.9477C67.2923 23.9477 68.9929 24.1695 70.4717 24.6131C71.9801 25.0272 73.1631 25.4856 74.0208 25.9884L72.2906 30.5135C71.285 29.9515 70.1759 29.5227 68.9633 29.2269C67.7803 28.9312 66.5529 28.7833 65.2812 28.7833C63.7728 28.7833 62.5898 29.0939 61.7321 29.7149C60.9039 30.336 60.4899 31.2085 60.4899 32.3324C60.4899 33.0126 60.623 33.6042 60.8892 34.1069C61.1849 34.5802 61.5842 35.009 62.087 35.3935C62.6193 35.778 63.2256 36.1329 63.9059 36.4582C64.6157 36.7835 65.3847 37.0941 66.2128 37.3899C67.662 37.9222 68.9486 38.4694 70.0724 39.0313C71.2259 39.5637 72.1871 40.2143 72.9561 40.9833C73.7546 41.7227 74.3609 42.61 74.775 43.6451C75.189 44.6507 75.3961 45.8781 75.3961 47.3273C75.3961 50.1074 74.4053 52.2665 72.4237 53.8044C70.4717 55.3128 67.6029 56.0669 63.8172 56.0669C62.5454 56.0669 61.3772 55.9782 60.3124 55.8008C59.2773 55.6529 58.3456 55.4606 57.5175 55.224C56.719 54.9874 56.0239 54.7508 55.4324 54.5142C54.8409 54.248 54.3677 54.0114 54.0128 53.8044L55.6542 49.2349C56.4528 49.6786 57.5323 50.1222 58.8928 50.5659C60.2533 51.0095 61.8947 51.2313 63.8172 51.2313ZM99.7534 50.5659V55.4015H80.3222V24.6575H85.912V50.5659H99.7534Z" fill="#FF56A7"/>
<path d="M77.189 92.7261C75.5624 92.7261 73.9209 92.667 72.2647 92.5487C70.6084 92.4599 69.1592 92.2529 67.917 91.9276V62.0709C68.5677 61.9525 69.2627 61.849 70.0021 61.7603C70.7415 61.642 71.4957 61.5533 72.2647 61.4941C73.0337 61.435 73.7878 61.3906 74.5272 61.361C75.2962 61.3315 76.0208 61.3167 76.701 61.3167C78.5643 61.3167 80.2945 61.4645 81.8916 61.7603C83.4887 62.0265 84.864 62.4849 86.0174 63.1356C87.2004 63.7862 88.1173 64.6439 88.768 65.7087C89.4186 66.7734 89.744 68.0895 89.744 69.657C89.744 71.1062 89.389 72.3484 88.6792 73.3836C87.999 74.4187 87.0378 75.2469 85.7956 75.8679C87.6589 76.489 89.0341 77.4059 89.9214 78.6185C90.8087 79.8311 91.2523 81.369 91.2523 83.2323C91.2523 86.3969 90.0989 88.7778 87.792 90.3749C85.485 91.9424 81.9507 92.7261 77.189 92.7261ZM73.4181 78.5298V87.8905C74.0392 87.9496 74.7047 87.994 75.4145 88.0236C76.1243 88.0532 76.775 88.0679 77.3665 88.0679C78.52 88.0679 79.5847 87.994 80.5607 87.8461C81.5663 87.6982 82.424 87.4469 83.1338 87.0919C83.8732 86.7075 84.4499 86.2047 84.864 85.5836C85.3076 84.9625 85.5294 84.1639 85.5294 83.1879C85.5294 81.443 84.8935 80.2304 83.6218 79.5501C82.35 78.8699 80.5903 78.5298 78.3425 78.5298H73.4181ZM73.4181 74.1378H77.3665C79.496 74.1378 81.167 73.842 82.3796 73.2505C83.5922 72.6294 84.1985 71.5351 84.1985 69.9676C84.1985 68.4888 83.5626 67.4389 82.2909 66.8178C81.0487 66.1967 79.422 65.8861 77.4109 65.8861C76.5532 65.8861 75.7842 65.9009 75.104 65.9305C74.4533 65.9601 73.8913 66.0044 73.4181 66.0636V74.1378ZM110.738 93.0367C108.431 93.0367 106.361 92.6818 104.527 91.9719C102.693 91.2621 101.141 90.227 99.8689 88.8665C98.5972 87.4764 97.6212 85.7906 96.9409 83.809C96.2607 81.8275 95.9206 79.5501 95.9206 76.977C95.9206 74.4039 96.305 72.1266 97.074 70.145C97.8726 68.1635 98.9521 66.4924 100.313 65.1319C101.673 63.7419 103.27 62.6919 105.104 61.9821C106.938 61.2723 108.904 60.9174 111.004 60.9174C112.276 60.9174 113.429 61.0209 114.465 61.2279C115.5 61.4054 116.402 61.6124 117.171 61.849C117.94 62.0856 118.576 62.337 119.078 62.6032C119.581 62.8694 119.936 63.0616 120.143 63.1799L118.502 67.7494C117.792 67.3058 116.771 66.8917 115.441 66.5072C114.139 66.0932 112.72 65.8861 111.182 65.8861C109.851 65.8861 108.609 66.1227 107.455 66.5959C106.302 67.0396 105.296 67.7198 104.438 68.6367C103.61 69.5535 102.96 70.707 102.486 72.097C102.013 73.4871 101.777 75.099 101.777 76.9327C101.777 78.5593 101.954 80.0529 102.309 81.4134C102.693 82.7739 103.27 83.9569 104.039 84.9625C104.808 85.9385 105.784 86.7075 106.967 87.2694C108.15 87.8018 109.57 88.0679 111.226 88.0679C113.208 88.0679 114.819 87.8757 116.062 87.4912C117.304 87.0772 118.265 86.6927 118.945 86.3378L120.454 90.9072C120.099 91.1438 119.611 91.3804 118.99 91.617C118.398 91.8536 117.688 92.0902 116.86 92.3269C116.032 92.5339 115.1 92.6965 114.065 92.8149C113.03 92.9627 111.921 93.0367 110.738 93.0367Z" fill="#FF56A7"/>
<path d="M53.278 92C52.1781 89.0886 51.143 86.242 50.1725 83.46C49.202 80.6133 48.1992 77.7343 47.1641 74.823H16.6918L10.578 92H0.776364C3.36424 84.8833 5.79038 78.3166 8.05477 72.2998C10.3192 66.2183 12.5189 60.4602 14.6539 55.0257C16.8536 49.5911 19.0209 44.4154 21.1559 39.4984C23.2909 34.5167 25.523 29.5998 27.852 24.7475H36.4891C38.8182 29.5998 41.0502 34.5167 43.1852 39.4984C45.3202 44.4154 47.4552 49.5911 49.5902 55.0257C51.7899 60.4602 54.022 66.2183 56.2864 72.2998C58.5508 78.3166 60.9769 84.8833 63.5648 92H53.278ZM44.4468 67.0593C42.3765 61.4307 40.3062 55.9961 38.2359 50.7557C36.2303 45.4505 34.1277 40.3718 31.928 35.5195C29.6636 40.3718 27.4962 45.4505 25.4259 50.7557C23.4203 55.9961 21.4147 61.4307 19.4091 67.0593H44.4468Z" fill="#FF56A7"/>
</svg>
